<svg width="27" height="22" viewBox="0 0 27 22" fill="none" xmlns="http://www.w3.org/2000/svg">
<path d="M24.5 0H2.5C1.96957 0 1.46086 0.210714 1.08579 0.585786C0.710714 0.960859 0.5 1.46957 0.5 2V20C0.5 20.5304 0.710714 21.0391 1.08579 21.4142C1.46086 21.7893 1.96957 22 2.5 22H24.5C25.0304 22 25.5391 21.7893 25.9142 21.4142C26.2893 21.0391 26.5 20.5304 26.5 20V2C26.5 1.46957 26.2893 0.960859 25.9142 0.585786C25.5391 0.210714 25.0304 0 24.5 0ZM9.1 13.2C9.31217 13.3591 9.45244 13.596 9.48995 13.8586C9.52746 14.1211 9.45913 14.3878 9.3 14.6C9.14087 14.8122 8.90397 14.9524 8.64142 14.99C8.37887 15.0275 8.11217 14.9591 7.9 14.8L3.9 11.8C3.7758 11.7069 3.675 11.5861 3.60557 11.4472C3.53614 11.3084 3.5 11.1552 3.5 11C3.5 10.8448 3.53614 10.6916 3.60557 10.5528C3.675 10.4139 3.7758 10.2931 3.9 10.2L7.9 7.2C8.11217 7.04087 8.37887 6.97254 8.64142 7.01005C8.90397 7.04756 9.14087 7.18783 9.3 7.4C9.45913 7.61217 9.52746 7.87887 9.48995 8.14142C9.45244 8.40397 9.31217 8.64087 9.1 8.8L6.16625 11L9.1 13.2ZM16.4613 4.275L12.4613 18.275C12.4272 18.4035 12.3678 18.5239 12.2866 18.6292C12.2054 18.7345 12.1041 18.8225 11.9885 18.8882C11.8728 18.9538 11.7453 18.9958 11.6133 19.0115C11.4813 19.0273 11.3475 19.0166 11.2196 18.98C11.0918 18.9434 10.9726 18.8818 10.8689 18.7986C10.7652 18.7154 10.6791 18.6123 10.6157 18.4955C10.5523 18.3786 10.5129 18.2503 10.4996 18.118C10.4864 17.9857 10.4997 17.8521 10.5387 17.725L14.5387 3.725C14.6156 3.47467 14.7876 3.26448 15.0178 3.13961C15.248 3.01473 15.518 2.98512 15.7697 3.05715C16.0215 3.12918 16.235 3.29709 16.3643 3.52481C16.4936 3.75253 16.5284 4.02189 16.4613 4.275ZM23.1 11.8L19.1 14.8C18.8878 14.9591 18.6211 15.0275 18.3586 14.99C18.096 14.9524 17.8591 14.8122 17.7 14.6C17.5409 14.3878 17.4725 14.1211 17.51 13.8586C17.5476 13.596 17.6878 13.3591 17.9 13.2L20.8337 11L17.9 8.8C17.7949 8.72121 17.7064 8.62249 17.6395 8.50949C17.5726 8.39649 17.5286 8.27142 17.51 8.14142C17.4915 8.01142 17.4987 7.87903 17.5313 7.75182C17.5639 7.62461 17.6212 7.50506 17.7 7.4C17.7788 7.29494 17.8775 7.20643 17.9905 7.13953C18.1035 7.07262 18.2286 7.02862 18.3586 7.01005C18.4886 6.99148 18.621 6.99869 18.7482 7.03129C18.8754 7.06388 18.9949 7.12121 19.1 7.2L23.1 10.2C23.2242 10.2931 23.325 10.4139 23.3944 10.5528C23.4639 10.6916 23.5 10.8448 23.5 11C23.5 11.1552 23.4639 11.3084 23.3944 11.4472C23.325 11.5861 23.2242 11.7069 23.1 11.8Z" fill="#FB6B1A"/>
</svg>
